<svg version="1.1"
      xmlns="http://www.w3.org/2000/svg"
      xmlns:xlink="http://www.w3.org/1999/xlink"  id="snapshot-93428" width="250" height="250" viewBox="0 0 250 250"><desc>This image was made on Patterninja.com</desc><defs>
<!-- image 49860 -->
<g id="transformed-49860" data-image="49860" transform="translate(-44.40720662234904, -42.98617601043388) rotate(7, 44.40720662234904, 42.98617601043388)"><g><svg version="1.1" width="88.81441324469807px" height="85.97235202086776px" viewBox="0 0 88.81441324469807 85.97235202086776"><g id="original-49860"><svg xmlns="http://www.w3.org/2000/svg" viewBox="0 0 70 68" xmlns:xlink="http://www.w3.org/1999/xlink" version="1.1" preserveAspectRatio="xMidYMid meet">
  <path fill-rule="evenodd" d="M14 65c9.113 0 11-2.853 11-8 0-.169-.02-.832-.025-1h20.05c0 .168-.025.831-.025 1 0 5.147 1.887 8 11 8v3H14v-3z" fill="rgba(81, 96, 120, 1)" stroke="none"/>
  <rect width="70" height="54" y="2" fill-rule="evenodd" rx="6" fill="rgba(111, 130, 164, 1)" stroke="none"/>
  <path fill-rule="evenodd" d="M70 47V5.998A5.993 5.993 0 0 0 64.002 0H5.998A5.995 5.995 0 0 0 0 5.998V47h70z" fill="rgba(165, 181, 211, 1)" stroke="none"/>
  <circle cx="35" cy="52" r="3" fill-rule="evenodd" fill="rgba(80, 96, 121, 1)" stroke="none"/>
</svg>
</g></svg></g></g>
<!-- /image 49860 -->
</defs><rect x="0" y="0" width="250" height="250" fill="rgba(10, 25, 35, 1)"></rect><use xlink:href="#transformed-49860" transform="translate(-250, -250)"></use><use xlink:href="#transformed-49860" transform="translate(0, -250)"></use><use xlink:href="#transformed-49860" transform="translate(250, -250)"></use><use xlink:href="#transformed-49860" transform="translate(-250, 0)"></use><use xlink:href="#transformed-49860" transform="translate(0, 0)"></use><use xlink:href="#transformed-49860" transform="translate(250, 0)"></use><use xlink:href="#transformed-49860" transform="translate(-250, 250)"></use><use xlink:href="#transformed-49860" transform="translate(0, 250)"></use><use xlink:href="#transformed-49860" transform="translate(250, 250)"></use></svg>